<?xml version="1.0" encoding="UTF-8"?>
<!DOCTYPE svg PUBLIC "-//W3C//DTD SVG 1.1//EN" "http://www.w3.org/Graphics/SVG/1.1/DTD/svg11.dtd">
<!-- Creator: CorelDRAW 2020 (64-Bit) -->
<svg xmlns="http://www.w3.org/2000/svg" xml:space="preserve" width="477.953mm" height="169.326mm" version="1.1" style="shape-rendering:geometricPrecision; text-rendering:geometricPrecision; image-rendering:optimizeQuality; fill-rule:evenodd; clip-rule:evenodd"
viewBox="0 0 37859.79 13412.66"
 xmlns:xlink="http://www.w3.org/1999/xlink"
 xmlns:xodm="http://www.corel.com/coreldraw/odm/2003">
 <defs>
  <style type="text/css">
   <![CDATA[
    .fil0 {fill:#0F0F0F}
    .fil1 {fill:#FA0008}
    .fil2 {fill:#0F0F0F;fill-rule:nonzero}
   ]]>
  </style>
 </defs>
 <g id="Слой_x0020_1">
  <metadata id="CorelCorpID_0Corel-Layer"/>
  <path class="fil0" d="M5744.21 5635.33c351.75,-72.82 583.05,-300.37 693.91,-682.45 746.37,-2562.3 1119.55,-3843.5 1119.55,-3843.5 122.03,-633.04 -141.78,-978.76 -791.43,-1037.16 -1096.73,-12.64 -2193.46,-12.64 -3290.1,0 -572.37,945.17 -858.51,1417.75 -858.51,1417.75 990.72,-10.76 1981.33,-10.76 2972.05,0 155.03,43.08 230.9,158.19 227.74,345.33 -544.91,1877.09 -817.41,2815.63 -817.41,2815.63 -41.6,85.18 -123.9,130.53 -246.71,136.06 -235.95,0.3 -471.8,0.3 -707.64,0l890.82 -3051.08 -1639.36 37.74 -3297.12 11136.09 1674.14 0 1995.86 -6836c199,-5.93 397.99,-5.93 596.98,0 131.9,39.61 160.76,181.7 86.75,426.14 -739.65,2448.38 -1097.62,3679.89 -1074.01,3694.41 932.32,0.2 1487.5,0.2 1665.45,0 731.75,-2581.27 1097.62,-3871.95 1097.62,-3871.95 33.79,-299.18 -65.71,-528.21 -298.59,-686.99z"/>
  <path class="fil0" d="M8398 3064.92c0,0 -1275.07,2977.68 -3825.22,8933.04 510.92,1.88 1021.84,3.85 1532.76,5.82 0,0 406.58,-994.26 1219.74,-2982.91 0,0 319.14,-1.88 957.51,-5.53 0,0 -58.39,423.67 -175.08,1270.92 514.28,-16.59 1028.65,-16.59 1542.93,0 0,0 314.1,-2407.08 942.3,-7221.34 -731.64,9.78 -1463.3,9.78 -2194.95,0zm-668.12 4836.1c0,0 447.39,-1083.59 1342.07,-3250.67 0,0 -163.92,1083.58 -491.85,3250.67 -283.47,11.16 -566.84,11.16 -850.22,0z"/>
  <path class="fil0" d="M12083.23 3089.03c0,0 -699.25,2388.5 -2097.63,7165.62 0,0 994.87,4.05 2984.59,12.25 428.71,-80.13 742.52,-358.36 902.28,-688.57 0,0 538.19,-1862.27 1614.57,-5586.91 136.45,-512.2 12.55,-812.96 -371.7,-902.38 -1010.67,-0.1 -2021.44,-0.1 -3032.11,0zm-274.78 5952.79c0,0 440.47,-1557.96 1321.51,-4673.86 25.49,-131.32 97.23,-193.86 215.2,-187.54 167.38,-7.41 334.75,-7.41 502.13,0 99.89,46.93 122.52,172.41 67.97,376.65 0,0 -443.34,1494.91 -1329.91,4484.75 -258.96,0 -517.93,0 -776.9,0z"/>
  <path class="fil0" d="M16278.18 3082.41c-1375.07,4792.62 -2062.65,7188.94 -2062.65,7188.94 527.32,0 1054.64,0 1581.96,0 1345.22,-4828.88 2003.26,-7188.94 2003.26,-7188.94 -507.56,0.4 -1015.02,0.4 -1522.58,0z"/>
  <path class="fil0" d="M18276.99 3655.18l-1819.09 5988.96c-95.64,314.79 269.64,607.45 598.16,598.16l2482.47 -70.65c328.53,-9.28 508.65,-281.99 598.16,-598.16l1679.09 -5928.38c89.52,-316.18 -269.14,-599.54 -598.16,-598.16l-2342.46 10.08c-329.02,1.39 -502.52,283.37 -598.16,598.16zm-139.52 5346.62l1405.99 -4793.02 716.73 4.44 -1394.33 4788.57 -728.39 0z"/>
  <path class="fil1" d="M24185.42 1107.9c0,0 -763.46,2686 -2290.3,8058.12 -95.24,496.99 102.26,868.29 592.33,1113.92 822.65,13.34 1777.21,13.34 2599.95,0 0,0 243.55,-538.29 730.56,-1614.96 -195.04,12.35 -1008.3,12.35 -2175.98,0 0,0 742.02,-2531.47 2032.9,-6873.85 65.22,-182.09 146.63,-305.2 244.05,-369.43 163.91,-6.62 327.73,-6.62 491.65,0 61.86,56.72 84.48,141.2 67.88,253.43 0,0 -151.67,538.39 -455.1,1615.07 8.3,15.31 588.29,-140.11 1739.85,-466.16 0,0 255.21,-936.27 765.74,-2808.92 0,0 -1077.37,-5.04 -3021.55,-15.12 -735.3,78.16 -1175.97,447.49 -1322.01,1107.9z"/>
  <polygon class="fil1" points="27909.56,3064.63 25338.66,11985.91 26851.76,11985.91 29436.3,3064.63 "/>
  <polygon class="fil1" points="30374.34,4365.1 28178.22,11985.91 29691.31,11985.91 31899.1,4365.1 32945.93,4365.1 33240.37,3064.63 32275.84,3064.63 30749.11,3064.63 29839.71,3064.63 29445.78,4365.1 "/>
  <polygon class="fil1" points="33448.95,3073.03 33843.28,8036.58 31262.4,12919.8 32815.41,12919.8 37859.79,3054.25 36476.52,3054.25 35015.4,5818.81 34851.28,3096.15 "/>
  <path class="fil2" d="M7965.41 11756.21l517.64 0 73.54 -272.45 -817.32 0 -514.78 1907.12 817.32 0 73.54 -272.45 -517.64 0 150.76 -558.49 411.39 0 73.54 -272.45 -411.39 0 143.4 -531.27zm829.71 1634.66l792.8 0 73.54 -272.45 -493.12 0 441.24 -1634.66 -299.68 0 -514.78 1907.12zm2232.52 -1634.66l517.64 0 73.54 -272.45 -817.31 0 -514.78 1907.12 817.32 0 73.54 -272.45 -517.64 0 150.76 -558.49 411.39 0 73.54 -272.45 -411.39 0 143.4 -531.27zm1607.41 923.6l-73.54 272.42c-36.79,136.24 -109.96,185.29 -205.32,185.29 -95.36,0 -142.06,-49.05 -105.28,-185.29l277.99 -1029.82c36.75,-136.21 110.68,-187.99 206.04,-187.99 95.36,0 141.31,51.77 104.56,187.99l-55.18 204.34 283.34 0 50.03 -185.29c82.37,-305.13 -23.14,-479.5 -317.37,-479.5 -294.24,0 -493.87,174.36 -576.25,479.5l-267.68 991.71c-82.38,305.13 23.13,479.5 317.37,479.5 294.23,0 493.86,-174.36 576.24,-479.5l68.39 -253.36 -283.34 0zm1195.99 -923.6l313.3 0 -441.24 1634.66 299.7 0 441.24 -1634.66 313.3 0 73.54 -272.45 -926.3 0 -73.54 272.45zm2115.6 1634.66c-10.84,-70.84 4.82,-138.95 29.82,-231.57l79.42 -294.24c53.67,-198.89 43.63,-343.28 -89.31,-405.96 150.43,-62.65 247.65,-190.69 300.58,-386.86l40.47 -149.84c79.41,-294.24 -15.1,-438.65 -325.69,-438.65l-452.25 0 -514.78 1907.12 299.68 0 209.6 -776.47 103.52 0c136.24,0 178.54,65.41 130.72,242.47l-80.91 299.7c-41.9,155.3 -39.1,185.25 -36.01,234.3l305.14 0zm-46.42 -1634.66c106.26,0 136.39,59.94 99.63,196.15l-50.74 187.98c-41.19,152.57 -122.53,201.62 -234.25,201.62l-117.15 0 158.11 -585.75 144.4 0zm1449.48 166.2c36.75,-136.21 110.68,-187.99 206.04,-187.99 95.36,0 141.31,51.77 104.56,187.99l-277.99 1029.82c-36.79,136.24 -110.68,187.99 -206.05,187.99 -95.36,0 -141.33,-51.75 -104.55,-187.99l277.99 -1029.82zm-572.51 1010.76c-82.38,305.13 31.3,479.5 325.53,479.5 294.24,0 502.04,-174.36 584.41,-479.5l267.68 -991.71c82.37,-305.13 -31.3,-479.5 -325.54,-479.5 -294.23,0 -502.03,174.36 -584.4,479.5l-267.68 991.71zm2188.08 457.7l307.87 0 514.78 -1907.12 -266.99 0 -308.13 1141.54 0.26 -1141.54 -375.97 0 -514.78 1907.12 269.72 0 372.85 -1381.28 0.39 1381.28zm1091.13 0l299.68 0 514.78 -1907.12 -299.68 0 -514.78 1907.12zm1863.37 -711.07l-73.54 272.42c-36.79,136.24 -109.97,185.29 -205.33,185.29 -95.36,0 -142.06,-49.05 -105.27,-185.29l277.99 -1029.82c36.75,-136.21 110.68,-187.99 206.04,-187.99 95.36,0 141.31,51.77 104.55,187.99l-55.17 204.34 283.34 0 50.02 -185.29c82.38,-305.13 -23.13,-479.5 -317.37,-479.5 -294.23,0 -493.86,174.36 -576.24,479.5l-267.69 991.71c-82.37,305.13 23.14,479.5 317.37,479.5 294.24,0 493.87,-174.36 576.25,-479.5l68.39 -253.36 -283.34 0zm1195.04 -738.35c-147.08,544.89 418.81,618.47 312.91,1010.76 -36.78,136.24 -109.96,185.29 -205.32,185.29 -95.36,0 -142.04,-49.05 -105.25,-185.29l36.75 -136.21 -283.34 0 -31.61 117.15c-82.37,305.13 23.13,479.5 317.37,479.5 294.24,0 493.87,-174.36 576.25,-479.5 147.08,-544.9 -418.86,-618.44 -312.94,-1010.76 36.76,-136.21 105.25,-187.99 200.61,-187.99 95.36,0 135.85,51.77 99.09,187.99l-21.33 79 283.34 0 16.18 -59.94c82.38,-305.13 -20.4,-479.5 -311.93,-479.5 -291.51,0 -488.41,174.36 -570.79,479.5l0 0z"/>
 </g>
</svg>
